<svg width="364" height="516" viewBox="0 0 364 516" fill="none" xmlns="http://www.w3.org/2000/svg">
<path d="M362 2.00003L362 258.291L2.00001 258.291L2.00002 2.00001L362 2.00003Z" fill="#6CA649"/>
<path d="M362 257.709L362 514L2 514L2.00001 257.709L362 257.709Z" fill="#6CA649"/>
<path d="M362 40.9376L3.16507 40.9376M2.58252 475.644L361.417 475.644M362 147.871L3.16506 147.871M2.58253 368.711L361.417 368.711M328.796 257.128L328.796 250.154M35.7864 259.453L35.7864 265.846M279.864 257.128L279.864 250.154M84.7185 259.453L84.7185 265.846M84.7185 257.128L84.7185 250.154M279.864 259.453L279.864 265.846M35.7864 257.128L35.7864 250.154M328.796 259.453L328.796 265.846M328.796 155.426L328.796 149.033M35.7864 361.156L35.7864 367.548M279.864 155.426L279.864 149.033M84.7184 361.156L84.7184 367.548M84.7185 155.426L84.7185 149.033M279.864 361.156L279.864 367.548M35.7864 155.426L35.7864 149.033M328.796 361.156L328.796 367.548M328.796 146.708L328.796 140.316M35.7864 369.873L35.7864 376.266M328.796 218.772L328.796 212.379M35.7864 297.809L35.7864 304.202M328.796 227.489L328.796 221.097M35.7864 289.092L35.7864 295.485M316.563 219.934L341.612 219.934M48.0194 296.647L22.9709 296.647M267.631 219.934L292.68 219.934M96.9515 296.647L71.9029 296.647M218.699 219.934L243.748 219.934M145.883 296.647L120.835 296.647M169.767 219.934L194.816 219.934M194.816 296.647L169.767 296.647M120.835 219.934L145.883 219.934M243.748 296.647L218.699 296.647M71.9029 219.934L96.9515 219.934M292.68 296.647L267.631 296.647M23.5534 219.934L48.6019 219.934M341.029 296.647L315.981 296.647M328.796 68.8332L328.796 82.1998M35.7864 447.748L35.7864 434.381M320.058 67.6709L337.534 67.6709M44.5243 448.91L27.0485 448.91M271.126 67.6709L289.184 67.6709M93.4563 448.91L75.3981 448.91M198.311 67.6709L216.369 67.6709M166.272 448.91L148.214 448.91M158.117 25.8275L206.466 25.8275M206.466 490.754L158.116 490.754M148.214 67.6709L166.272 67.6709M216.369 448.91L198.311 448.91M75.3981 67.6708L93.4563 67.6709M289.184 448.91L271.126 448.91M27.0486 67.6708L45.1068 67.6708M337.534 448.91L319.476 448.91M279.864 146.708L279.864 140.316M84.7184 369.873L84.7184 376.266M279.864 218.772L279.864 212.379M84.7184 297.809L84.7184 304.202M279.864 227.489L279.864 221.097M84.7184 289.092L84.7184 295.485M279.864 68.8332L279.864 82.1998M84.7184 447.748L84.7184 434.381M84.7185 146.708L84.7185 140.316M279.864 369.873L279.864 376.266M84.7185 218.772L84.7185 212.379M279.864 297.809L279.864 304.202M84.7185 227.489L84.7185 221.097M279.864 289.092L279.864 295.485M84.7185 68.8332L84.7185 82.1998M279.864 447.748L279.864 434.381M35.7864 146.708L35.7864 140.316M328.796 369.873L328.796 376.266M35.7864 218.772L35.7864 212.379M328.796 297.809L328.796 304.202M35.7864 227.489L35.7864 221.097M328.796 289.092L328.796 295.485M35.7864 68.8332L35.7864 82.1998M328.796 447.748L328.796 434.381M207.631 39.7753L207.631 11.2985M156.951 476.806L156.951 505.283M156.951 39.7753L156.951 11.2985M207.631 476.806L207.631 505.283M362 2.00003L362 258.291L2.00001 258.291L2.00002 2.00001L362 2.00003ZM362 257.709L362 514L2 514L2.00001 257.709L362 257.709Z" stroke="white" stroke-width="4"/>
</svg>
